<mxfile host="Electron" modified="2023-05-09T10:05:46.864Z" agent="Mozilla/5.0 (Windows NT 10.0; Win64; x64) AppleWebKit/537.36 (KHTML, like Gecko) draw.io/21.2.8 Chrome/112.0.5615.165 Electron/24.2.0 Safari/537.36" etag="uZ-7_BMm89Shk4afiLO5" version="21.2.8" type="device">
  <diagram id="wtrryP7HaxsPpJlfKYGV" name="Seite-1">
    <mxGraphModel dx="1154" dy="582" grid="1" gridSize="10" guides="1" tooltips="1" connect="1" arrows="1" fold="1" page="1" pageScale="1" pageWidth="827" pageHeight="1169" math="0" shadow="0">
      <root>
        <mxCell id="0" />
        <mxCell id="1" parent="0" />
        <mxCell id="iqMSQuM4H0TtiFKFOqIa-1" value="Klassen" style="ellipse;whiteSpace=wrap;html=1;" parent="1" vertex="1">
          <mxGeometry x="200" y="160" width="450" height="330" as="geometry" />
        </mxCell>
        <mxCell id="Wcnpx0SC3fY4fjEo6hNY-5" value="&quot;trainiert/lernen&quot;" style="edgeStyle=orthogonalEdgeStyle;rounded=0;orthogonalLoop=1;jettySize=auto;html=1;exitX=1;exitY=0.5;exitDx=0;exitDy=0;" parent="1" source="Wcnpx0SC3fY4fjEo6hNY-1" target="Wcnpx0SC3fY4fjEo6hNY-4" edge="1">
          <mxGeometry relative="1" as="geometry" />
        </mxCell>
        <mxCell id="Wcnpx0SC3fY4fjEo6hNY-1" value="Datenbasis&lt;br&gt;(Datenbank)" style="rounded=0;whiteSpace=wrap;html=1;" parent="1" vertex="1">
          <mxGeometry x="90" y="350" width="120" height="60" as="geometry" />
        </mxCell>
        <mxCell id="Wcnpx0SC3fY4fjEo6hNY-3" value="Körperparamter (über Zeit verändert);&lt;br&gt;Trainingseinheiten" style="edgeStyle=orthogonalEdgeStyle;rounded=0;orthogonalLoop=1;jettySize=auto;html=1;exitX=0;exitY=1;exitDx=0;exitDy=0;exitPerimeter=0;" parent="1" source="Wcnpx0SC3fY4fjEo6hNY-2" target="Wcnpx0SC3fY4fjEo6hNY-1" edge="1">
          <mxGeometry x="0.2821" y="-20" relative="1" as="geometry">
            <Array as="points">
              <mxPoint x="320" y="260" />
              <mxPoint x="150" y="260" />
            </Array>
            <mxPoint as="offset" />
          </mxGeometry>
        </mxCell>
        <mxCell id="Wcnpx0SC3fY4fjEo6hNY-8" value="aktuelle Körperparameter;&lt;br&gt;Ziel" style="edgeStyle=orthogonalEdgeStyle;rounded=0;orthogonalLoop=1;jettySize=auto;html=1;entryX=1;entryY=0;entryDx=0;entryDy=0;" parent="1" target="Wcnpx0SC3fY4fjEo6hNY-4" edge="1">
          <mxGeometry x="-0.4194" y="-20" relative="1" as="geometry">
            <mxPoint x="350" y="130" as="sourcePoint" />
            <Array as="points">
              <mxPoint x="440" y="130" />
            </Array>
            <mxPoint x="20" y="-20" as="offset" />
          </mxGeometry>
        </mxCell>
        <mxCell id="Wcnpx0SC3fY4fjEo6hNY-2" value="User" style="shape=umlActor;verticalLabelPosition=bottom;verticalAlign=top;html=1;outlineConnect=0;" parent="1" vertex="1">
          <mxGeometry x="320" y="70" width="30" height="60" as="geometry" />
        </mxCell>
        <mxCell id="Wcnpx0SC3fY4fjEo6hNY-6" value="gibt Empfehlungen" style="edgeStyle=orthogonalEdgeStyle;rounded=0;orthogonalLoop=1;jettySize=auto;html=1;entryX=1;entryY=1;entryDx=0;entryDy=0;entryPerimeter=0;exitX=0.5;exitY=0;exitDx=0;exitDy=0;" parent="1" source="Wcnpx0SC3fY4fjEo6hNY-4" target="Wcnpx0SC3fY4fjEo6hNY-2" edge="1">
          <mxGeometry x="-0.28" y="22" relative="1" as="geometry">
            <mxPoint x="470" y="570" as="sourcePoint" />
            <Array as="points">
              <mxPoint x="380" y="290" />
              <mxPoint x="350" y="290" />
            </Array>
            <mxPoint x="2" y="10" as="offset" />
          </mxGeometry>
        </mxCell>
        <mxCell id="Wcnpx0SC3fY4fjEo6hNY-4" value="KI/AI" style="rounded=0;whiteSpace=wrap;html=1;" parent="1" vertex="1">
          <mxGeometry x="320" y="350" width="120" height="60" as="geometry" />
        </mxCell>
        <mxCell id="Wcnpx0SC3fY4fjEo6hNY-10" style="edgeStyle=orthogonalEdgeStyle;rounded=0;orthogonalLoop=1;jettySize=auto;html=1;entryX=0.5;entryY=1;entryDx=0;entryDy=0;" parent="1" source="Wcnpx0SC3fY4fjEo6hNY-9" target="Wcnpx0SC3fY4fjEo6hNY-1" edge="1">
          <mxGeometry relative="1" as="geometry" />
        </mxCell>
        <mxCell id="Wcnpx0SC3fY4fjEo6hNY-9" value="externe Quelle für vorgegebene Trainingsdaten&lt;br&gt;(Startdatenbasis)" style="ellipse;whiteSpace=wrap;html=1;" parent="1" vertex="1">
          <mxGeometry x="90" y="440" width="120" height="80" as="geometry" />
        </mxCell>
        <mxCell id="Wcnpx0SC3fY4fjEo6hNY-11" value="GUI" style="ellipse;whiteSpace=wrap;html=1;" parent="1" vertex="1">
          <mxGeometry x="290" y="160" width="160" height="80" as="geometry" />
        </mxCell>
        <mxCell id="Wcnpx0SC3fY4fjEo6hNY-13" value="Körperparameter, Trainingseinheiten,&lt;br&gt;Zeitstempel" style="text;html=1;strokeColor=none;fillColor=none;align=center;verticalAlign=middle;whiteSpace=wrap;rounded=0;" parent="1" vertex="1">
          <mxGeometry x="230" y="465" width="60" height="30" as="geometry" />
        </mxCell>
        <mxCell id="iqMSQuM4H0TtiFKFOqIa-4" style="edgeStyle=orthogonalEdgeStyle;rounded=0;orthogonalLoop=1;jettySize=auto;html=1;exitX=0.5;exitY=0;exitDx=0;exitDy=0;entryX=0.5;entryY=1;entryDx=0;entryDy=0;" parent="1" source="iqMSQuM4H0TtiFKFOqIa-2" target="Wcnpx0SC3fY4fjEo6hNY-9" edge="1">
          <mxGeometry relative="1" as="geometry" />
        </mxCell>
        <mxCell id="iqMSQuM4H0TtiFKFOqIa-2" value="eventuell Simulator,&lt;br&gt;der aus Annahmen zufällige Daten generiert, bauen.&lt;br&gt;(Pseudo-Daten)" style="shape=parallelogram;perimeter=parallelogramPerimeter;whiteSpace=wrap;html=1;fixedSize=1;" parent="1" vertex="1">
          <mxGeometry x="65" y="545" width="170" height="80" as="geometry" />
        </mxCell>
        <mxCell id="iqMSQuM4H0TtiFKFOqIa-6" value="???" style="edgeStyle=orthogonalEdgeStyle;rounded=0;orthogonalLoop=1;jettySize=auto;html=1;exitX=0;exitY=0.75;exitDx=0;exitDy=0;entryX=1;entryY=0.5;entryDx=0;entryDy=0;" parent="1" source="iqMSQuM4H0TtiFKFOqIa-5" target="Wcnpx0SC3fY4fjEo6hNY-4" edge="1">
          <mxGeometry relative="1" as="geometry" />
        </mxCell>
        <mxCell id="iqMSQuM4H0TtiFKFOqIa-5" value="Zielbewertung?!" style="shape=hexagon;perimeter=hexagonPerimeter2;whiteSpace=wrap;html=1;fixedSize=1;" parent="1" vertex="1">
          <mxGeometry x="680" y="60" width="120" height="80" as="geometry" />
        </mxCell>
      </root>
    </mxGraphModel>
  </diagram>
</mxfile>
